<svg width="79" height="74" viewBox="0 0 79 74" fill="none" xmlns="http://www.w3.org/2000/svg">
<g clip-path="url(#clip0_12895_4807)">
<path d="M47.1443 13.66C46.9983 14.097 46.4973 14.295 46.0463 14.392C44.0313 14.826 41.8323 14.314 40.2163 13.034C39.7583 12.671 39.3103 12.143 39.4293 11.572C39.5103 11.182 39.8493 10.885 40.2253 10.755C40.6013 10.625 41.0103 10.637 41.4062 10.676C42.4243 10.776 47.7273 11.915 47.1443 13.66ZM19.6133 10.555C19.5323 10.165 19.1932 9.868 18.8172 9.738C18.4412 9.608 18.0322 9.62 17.6362 9.659C16.6182 9.759 11.3152 10.899 11.8982 12.644C12.0442 13.081 12.5453 13.279 12.9963 13.376C15.0113 13.81 17.2103 13.298 18.8263 12.018C19.2833 11.655 19.7313 11.127 19.6133 10.555ZM29.7882 4.575C28.2253 4.432 26.7112 5.233 25.8072 6.481C25.6032 6.764 25.7582 7.2 26.0392 7.364C26.3652 7.555 26.7173 7.416 26.9223 7.132C27.4453 6.409 28.3043 5.953 29.1903 5.869C28.9123 7.845 28.7543 9.831 28.7143 11.825C28.0443 12.208 27.3873 12.695 26.9083 13.288C26.5913 13.681 26.4273 14.221 26.7113 14.684C26.9193 15.022 27.2863 15.227 27.6663 15.314C28.4823 15.501 29.4003 15.461 30.2253 15.361C30.6773 15.306 31.1773 15.266 31.5963 15.074C32.5943 14.616 31.9892 13.582 31.4142 13.095C31.0912 12.821 30.5503 12.189 30.0033 11.834C30.0383 9.93 30.1763 8.027 30.4443 6.141C30.4493 6.103 30.4442 6.065 30.4452 6.027C31.2322 6.303 31.8943 6.888 32.2743 7.634C32.6513 8.374 33.7653 7.722 33.3883 6.983C32.6943 5.62 31.3032 4.713 29.7882 4.575ZM77.3262 49.356C76.0472 52.809 73.4882 55.619 70.2012 57.271C67.0642 58.848 63.4023 59.387 59.9693 58.578C56.5543 57.773 53.1843 55.498 52.0713 52.034C51.0553 48.873 52.1363 44.995 55.2383 43.454C59.0583 41.558 63.1473 43.384 66.6103 45.21C67.8073 44.248 68.1132 42.632 67.9652 41.146C67.7762 39.24 66.7623 37.61 65.7463 36.037C64.7673 34.521 63.7413 33.001 63.1853 31.266C62.7083 29.778 62.6133 28.184 62.8403 26.642C63.0803 25.013 63.6973 23.419 64.6643 22.081C65.6103 20.771 66.8893 19.859 68.0573 18.769C69.3633 17.551 70.1553 16.052 69.8173 14.228C69.4873 12.446 68.4043 10.844 67.2513 9.486C65.0533 6.899 62.1573 4.67 61.1883 1.29C60.0963 1.29 59.0033 1.29 57.9113 1.29C57.4843 4.315 56.7693 7.282 55.7913 10.178C53.9123 15.745 51.2363 21.006 48.4113 26.144C47.7503 27.346 47.1413 28.624 46.3643 29.756C45.7753 30.612 44.9363 31.537 43.8353 31.639C42.6183 31.752 41.8283 30.835 41.3383 29.836C40.7963 28.73 40.4043 27.562 40.1063 26.37C31.3423 27.419 22.4312 26.78 13.8222 24.893C13.1432 25.902 12.3962 26.864 11.5462 27.735C10.6532 28.65 9.61425 29.66 8.47225 30.258C7.55925 30.736 6.47625 30.788 5.79725 29.901C5.13125 29.032 4.93625 27.756 4.79725 26.701C4.42525 23.889 4.58725 20.971 4.55325 18.139C4.48525 12.524 4.41825 6.908 4.35325 1.291C3.11025 1.291 1.86625 1.291 0.62325 1.291C-0.20875 1.291 -0.20675 0 0.62325 0C6.16425 0 11.7043 0 17.2453 0C26.1463 0 35.0483 0 43.9493 0C53.4503 0 62.9512 0 72.4512 0C73.2832 0 73.2812 1.291 72.4512 1.291C70.6552 1.291 68.8593 1.291 67.0633 1.291C68.5253 2.62 70.2103 3.689 71.6923 5.001C73.3153 6.438 74.8233 8.131 75.6483 10.161C76.3913 11.989 76.4033 13.971 75.6693 15.802C74.9903 17.496 73.8633 18.939 72.7923 20.398C71.8503 21.682 70.8713 23.026 70.4273 24.577C69.9423 26.271 70.3003 27.963 71.1403 29.483C72.9053 32.676 75.8333 35.002 77.2083 38.448C78.5793 41.886 78.6112 45.887 77.3262 49.356ZM56.6223 1.291C56.3583 1.291 56.0943 1.291 55.8303 1.291C46.9293 1.291 38.0272 1.291 29.1262 1.291C21.2992 1.291 13.4713 1.291 5.64425 1.291C5.71725 7.573 5.79125 13.855 5.86625 20.137C5.88425 21.676 5.87825 23.218 5.93325 24.757C5.96125 25.534 6.01025 26.314 6.15025 27.08C6.25725 27.661 6.37225 28.635 6.78925 29.088C7.62725 29.999 9.76225 27.688 10.3623 27.097C11.3583 26.116 12.2283 25.031 12.9823 23.855C13.0813 23.7 13.2163 23.62 13.3573 23.584C13.4623 23.547 13.5773 23.528 13.7113 23.558C22.5122 25.534 31.6323 26.169 40.5953 25.031C40.8433 25 41.0063 25.102 41.1043 25.254L41.1053 25.255C41.1383 25.307 41.1653 25.361 41.1813 25.423C41.1923 25.452 41.2113 25.472 41.2183 25.506C41.5293 26.892 41.9303 28.372 42.6663 29.602C43.5363 31.057 44.7183 29.941 45.3743 28.918C46.7263 26.81 47.8573 24.507 49.0223 22.291C50.2163 20.02 51.3563 17.72 52.3893 15.371C54.3633 10.878 55.9263 6.159 56.6223 1.291ZM76.9293 42.949C76.8013 41.198 76.3392 39.445 75.5472 37.876C74.7762 36.349 73.6883 35.034 72.6133 33.715C70.7163 31.387 68.6192 28.749 68.9362 25.551C69.2332 22.553 71.3723 20.281 73.0113 17.913C73.8413 16.714 74.6182 15.418 74.8652 13.959C75.1672 12.178 74.5382 10.449 73.5602 8.981C72.5412 7.452 71.1543 6.157 69.7183 5.024C68.2183 3.841 66.6093 2.81 65.3033 1.399C65.2713 1.364 65.2593 1.326 65.2373 1.29C64.3303 1.29 63.4223 1.29 62.5153 1.29C63.8243 5.164 67.8612 7.497 69.8942 10.964C70.7342 12.396 71.3403 14.06 71.1543 15.743C70.9693 17.414 70.0193 18.736 68.8013 19.837C67.4613 21.049 66.0613 22.079 65.1683 23.695C64.3393 25.197 63.9443 26.921 64.0173 28.634C64.1863 32.571 67.3213 35.225 68.6883 38.712C69.7193 41.343 69.5803 44.857 67.0003 46.531C66.8033 46.659 66.5473 46.637 66.3493 46.531C62.9373 44.711 57.5673 42.105 54.3403 45.74C53.1743 47.053 52.7953 48.964 53.0673 50.668C53.3663 52.535 54.4843 54.138 55.9523 55.293C61.3603 59.548 69.7033 57.758 73.9383 52.72C76.1993 50.03 77.1823 46.422 76.9293 42.949ZM21.0212 15.356C20.2532 15.13 19.7362 15.466 19.4352 16C18.9222 16.632 18.8503 17.833 18.9893 18.495C19.1063 19.049 19.4922 19.52 20.0922 19.552C20.6742 19.583 21.0943 19.132 21.3223 18.65C21.7613 17.723 22.4952 15.79 21.0212 15.356ZM37.3943 15.914C37.2813 15.909 37.1683 15.935 37.0663 16.001C36.2393 16.544 36.0003 17.638 36.0983 18.573C36.1483 19.052 36.3053 19.531 36.7413 19.794C37.2193 20.083 37.8072 19.953 38.1702 19.547C38.4872 19.192 38.6553 18.655 38.8153 18.215C38.9903 17.734 39.1283 17.225 38.9603 16.722C38.7223 16.01 37.9713 15.734 37.3943 15.914ZM10.9373 21.946C10.6343 21.786 10.2292 21.862 10.0542 22.178C9.69425 22.829 9.33325 23.48 8.97325 24.131C8.83025 24.389 8.69225 24.653 8.54025 24.907C8.56425 24.598 8.60125 24.289 8.63125 23.981C8.70425 23.247 8.77725 22.513 8.85025 21.779C8.88425 21.442 8.52925 21.119 8.20525 21.134C7.82725 21.151 7.59625 21.418 7.56025 21.779C7.49325 22.447 7.42725 23.116 7.36025 23.784C7.30225 24.369 7.15525 25.011 7.28025 25.595C7.44025 26.338 8.24025 26.729 8.91425 26.358C9.47825 26.048 9.75125 25.387 10.0483 24.852C10.4213 24.178 10.7943 23.504 11.1683 22.83C11.3323 22.533 11.2503 22.111 10.9373 21.946ZM46.5093 22.29C46.2303 22.127 45.7743 22.204 45.6263 22.522C45.0733 23.712 44.5213 24.901 43.9683 26.091C43.9553 26.057 43.9423 26.022 43.9293 25.988C43.6893 25.344 43.4493 24.7 43.2093 24.056C43.0873 23.73 42.7723 23.507 42.4153 23.605C42.1013 23.691 41.8423 24.071 41.9643 24.399C42.2483 25.161 42.5303 25.924 42.8173 26.685C42.9503 27.04 43.1073 27.404 43.4503 27.604C43.8533 27.839 44.3733 27.742 44.6853 27.401C44.9413 27.121 45.0733 26.762 45.2303 26.423C45.3943 26.07 45.5583 25.717 45.7223 25.365C46.0613 24.634 46.4013 23.903 46.7403 23.173C46.8873 22.857 46.8293 22.478 46.5093 22.29Z" fill="black"/>
</g>
<defs>
<clipPath id="clip0_12895_4807">
<rect width="78.264" height="73.6888" fill="white"/>
</clipPath>
</defs>
</svg>
