<svg xmlns="http://www.w3.org/2000/svg" viewBox="0 0 512 640" x="0px" y="0px"><g><path d="M150.25,308.62c2.12-.85,3.77-1.63,5.72-2.4a2.23,2.23,0,0,1,2,3.93c-8.24,4.86-16.94,9.31-26.27,11.58-4.62-.56-7.91,7.3-12,4.28-2.45-8.36,21.92-10.36,27-15.3-40-24.53-18.89-95.92-47.42-129.18C88,166.68,70.47,158.4,53.59,151.7c-7.47-3.09-11.66-10.39-17.82-15.26-1.93-1.61-2.63-4-3.46-6.3-6.28-19.27,19.76-22.42,33-18.68,26.84,9.23,41,31.6,56,54.09,11.94,28.07,17.94,58.16,23.81,88.06a83.42,83.42,0,0,0,7.23,15.51c4.39,9.18,6,19.69,13.81,27,2.26,1.8,5.56-3.77,7.52-4.88,7.21-7.46,16.45-12.28,24.32-18.94,19.82-12.65,28.26-26.52,37.35-47.67,2-2.68,6.32-21.93,10.47-13.89-18.14,50.14-27.2,51.82-66.8,81.85-4.42,2.72-10.33,11.31-14.72,11.9-2.7-.77,0-5.06-3.24-7.17-5.42-5.41-7.46-12.82-10.19-19.73-4.28-10.48-10.85-19.85-12-31.46-2.72-19.27-8.81-37.81-13.63-56.52-2.71-10.47-6.78-21.06-13.3-29.8-8.56-10.46-14.86-23.08-25.67-31.43C78.11,122.67,68.87,116.65,59,115c-8.44-.24-23.85-.85-22.78,11.21.42,6.24,6,9,9.61,13.37,7,8.84,18.63,10.75,28.16,15.82,15.7,8.59,30.7,20.52,37.84,37.43,13.53,33.71,6.84,73.16,26.42,104.72a18.13,18.13,0,0,0,8.93,7.8C149.07,305.45,150.22,306.3,150.25,308.62Z"/><path d="M311.35,32.6c-2.93-.52-5.6-1.35-8.85-.51,2.68,2.45,10.81,6.57,6.5,10.48a2.16,2.16,0,0,1-2.82-.92c-9.29-10.25-12.86-8.89-14.46,4.77,2.15-.44,5.29-2.33,6.38.46.2,4.61-7.64,4-8.35,9,5.92,2.94,3.69,9.34-2.22,4.41-1.7,1.91-3.26,6.37-3.25,9.56,2.25.34,6.94-1.39,7.23,1.92a2.2,2.2,0,0,1-2.18,2.4c-2,.76-6.89-.72-6.53,2.37.61,2.29-1.05,11.21,2.85,9.67,2.24-.38,7.1-1.7,7.28,1.52.06,1.41-.94,2.24-2.84,2.49-14.82-1.65,8.27,29.21-13.3,65.77-.65,1.44-2.36,2.45-3.74,1.26-2.44-4.35,5.84-13.26,6.25-18.73,4.05-14.52,3.15-30.51.12-45.11-4.95,1.71-6.85-3.64-1.69-4.95A1.42,1.42,0,0,0,279,86.6c-1.1-3.8-.67-7.7-1.09-11.51-5.26.81-4.84-4.7-.1-5,3.19-1.32,2.67-9.27,5.66-12.54-6.42-2.62-4.36-9.26,1.93-4.62,1.89-1-.14-2.92.88-4.49,2.2-6,1.34-14.41,7.63-18,4.56-5.66,17.24-3.44,23.28-.67,14-1.46,27.8-9,42.43-6.32C389.66,25,372.8,24.65,395.39,16c9.1-4.35,15.74,7.75,14.17,15.64a2.71,2.71,0,0,0,.51,2.44c6.75,11.28,13.49,23.22,16.35,36.14.42,1.58,0,2.78-1.2,3.23-3.49,1.08-3.84-4.46-4.54-6.8-2.38-9.41-8.23-17.63-12.11-26.51C406.73,34,396.51,32.6,397.82,29c1.3-2.75,4.77-.55,6.73.36.91-2.45-.7-6.55-3.19-8.23-3.17,1.7-4.15,8.39-8.06,7.77-3.2-2.08.31-5,1.14-7.46-3.27,1-6.78,2-8.66,5.1a3.79,3.79,0,0,1-3.67,2.07c-14.82.87-29.87-3-44.39,1.28-7.77,2.56-16.06,3.51-23.59,6.75C311.55,37.94,310.56,34.81,311.35,32.6Z"/><path d="M299.39,434.2c-10.13-2.89,8.12-7.55,10.2-10.14,8.64-6.43,16.93-13.33,24-21.53,20.54-22.47,32.33-52.09,36.25-82.08.67-12.8,6.42-24.61,7.45-37.31.41-7.72.66-15.45,1.32-23.15,1.3-4.19-1.28-20,4.38-19.25,4.54,1.56.23,6.47,1,10.06-2,14.45-.51,29.28-3.82,43.53-2.16,9.22-5.22,18.27-5.9,27.77C368.07,367.44,342.51,415,299.39,434.2Z"/><path d="M51.38,356.91c-17,3.6-39.95-11-14-21.05,1.25-2,3.3-2.45,5.32-2.94,17.86-5,36.15-7.41,54.34-10.74,3.28-1.14,21.87-3.29,17.26,3.38a5,5,0,0,1-2.68.38,28.69,28.69,0,0,0-12.16.52c-19.1,3.37-38.27,6.42-57.07,11.4a2.68,2.68,0,0,0-1.95,1.6,2.64,2.64,0,0,1-2.36,1.59,11.72,11.72,0,0,0-6.93,3.82c-3.05,4.9,7.45,7.12,10.87,7.46,5.42,1.32,10.58-1.27,15.93-1.47,2.23.18,2.75,3.5.6,4.21-1.18.44-2.43.72-3.92,1.15,18.61,7.23,38.08,12.8,56.4,21.18,4.26,2.63,28.5,7.24,27.33,11.11-.12,6.36-37.77-10.86-42.73-12.33-13.65-6.11-28-10.33-42.13-15C51.48,360.48,51.2,359.89,51.38,356.91Z"/><path d="M296.85,468.79c-1.89-7.17-1.63-13.56-3.22-20.52-.21-4-3-8.88-.23-12.47a2.26,2.26,0,0,1,4,2.12c-.71,1.94-.36,3.8,0,5.74.41,3.8,6.18,25.61,1,25.32,16.09,5.06,27.71,36,.57,29.86-7.42-.31-12.91-5.7-19.86-7.49-3.1-.75-5.6-2.53-8.1-4.38-12.64-8.55-25.77-16.73-34.37-29.73-1.66-3.26-8.69-11.31-5.8-14.18,2.33-1.67,4.78,2.39,5.5,4.46,2.55,6.35,7.57,11.23,11.83,16.45a141.57,141.57,0,0,0,49.12,29.9c3.62.19,13.21,3.21,13.35-2.31-.67-7.18-5.45-14.73-12.26-17.45-2.69-.83-5.28-2-8.09-2.4a2.26,2.26,0,0,1,.1-4.52A17.11,17.11,0,0,1,296.85,468.79Z"/><path d="M240.81,440.7c-15.57-1.6-32.43-3.25-46.09-11.41-24.85-13.93-44.66-34.51-64.07-54.89-1.81-3.18-9.63-10-5.56-13.07a2.42,2.42,0,0,1,3,1.25c5.28,9.94,14.23,16.33,21.59,24.5,5.92,6.42,11.51,13.22,19.08,17.77,13.25,10.86,27.2,23.09,44.38,26.81,8.76,1,17.05,4.67,26,4.28,3.43,0,6.87-.08,10.29.11a2.42,2.42,0,0,1,2.3,2.37c-1,4.11-7.76,1.45-10.92,1.95Z"/><path d="M476.06,133c-19.94-4.79-79,45.35-83.48,35.87a2.21,2.21,0,0,1,1.79-2.89c12.61-4.56,23.14-13.49,35.16-19.48,9.62-5.43,19.05-11.54,29.49-15.26,12.26-4.51,30.34-5.83,17.2,11.93a30.65,30.65,0,0,1-18.6,12.58c-3.77.15-11.52,5-13.22,0a2.32,2.32,0,0,1,2.25-2.38C459.15,152.46,472.59,145.89,476.06,133Z"/><path d="M429.69,84.61c-2,40.44-37.27,68.85-49.79,105.35a2.28,2.28,0,0,1-2.34,2.46c-3.86-.73-2-6.63-.71-9,6.28-10,9.8-21.52,17.28-30.69,9.72-14.14,19.22-28.92,25.69-44.83a74.79,74.79,0,0,0,5.32-26.32,2.22,2.22,0,0,1,4.4.18C429.66,82.52,429.63,83.34,429.69,84.61Z"/><path d="M212.44,134.72c-17.11.62-33.33-25-22.47-25.6a2,2,0,0,1,1.44,2c-.06,7.21,5.24,11.85,10.53,15.71,2.8,3.81,17,.94,12.17,7.88,8.54,21.2,21.08,41.46,25.94,64.05.39,2,.42,4.13,1.69,5.94s-1.15,4.08-2.93,3c-3.24-1.47-2.76-5.81-3.47-8.77-.65-6.19-3.56-11.81-5.55-17.64-2.19-8.83-22.27-40.68-17.14-46.14Z"/><path d="M198.71,106.69c-2.94.86-10.84,1.78-6.57-3.29,16.23-5.75,30,9.84,43,17.43,15.73,13.71,29.51,29.51,44.5,44,.5,12-16.93-12-20.09-13.73-11-9.55-19.38-21.93-31.78-29.93C218.62,115.48,210,107.15,198.71,106.69Z"/><path d="M383.75,236.06c-8.12-1.24,10.52-16.89,12.74-19.46,7-6.6,13.19-14,19.68-21,3.08-3.71,32.4-42.68,35.19-35.87.7,1,.42,2.12-.64,3.23-7.61,8-15,16.18-22.44,24.26-10.69,16-25.29,28.66-38.18,42.73C388,231.93,386.82,235.5,383.75,236.06Z"/><path d="M371.1,66.75c-4.44,9.12-16.05,3.54-13.7-1.45,2.76-3.39,5.78,4.6,8.39.66,2.12-2.89,2.48-9.51-2.05-10.3A3.94,3.94,0,0,1,362,54.41a2.33,2.33,0,0,1-.41-2.95c1.68-2.26,4.7.4,6.8.77,2.06.71,3.42-.28,4.36-2.18a2.19,2.19,0,0,1,3.87,2c-.42,4-5.75,3.8-4.51,7.24a7,7,0,0,0,8.23,5.31C388.22,65.23,380.35,73.57,371.1,66.75Z"/><path d="M320.16,70.45c-5.65,1.16-16.77-7.13-9.13-10.58a2,2,0,0,1,2.16,1.94c1.26,5.56,8.7,4,12.68,2.75,3.63-.36,1.81-6.13,5.24-6.2,4.17,1.08,2,7.37-.85,9C327.54,69.51,323.22,70,320.16,70.45Z"/><path d="M399.59,59.1c-5.8-.19-10.77-2.37-14-6.8-1.11-2,1.5-4.36,3.32-2.77,2.79,2.48,5.77,4.82,9.64,4.95,3.18.46,5.43-1.65,7.12-4.07C413.91,46.12,408.55,59.6,399.59,59.1Z"/><path d="M436.82,57c2.46,0,4-.06,6.1,0,2.68.2,2.91,4.18.13,4.37-3.39.55-6.84-.57-10.11.67C428,63.13,425.69,54.86,436.82,57Z"/><path d="M440,75.91c2.7.79,9.06-.09,8.56,4.09a2.17,2.17,0,0,1-2.48,1.58c-2.21-.07-4.57-1.52-6.64-.23a2.14,2.14,0,0,1-2.63-.09C434.7,79.09,436.73,75.33,440,75.91Z"/><path d="M430.4,41c-.45,3.27-5.23,2.81-7.34,4.81-2.53,1.93-5.22-.78-3.27-3.22C421.34,40.57,430.23,36.36,430.4,41Z"/></g><text x="0" y="527" fill="#000000" font-size="5px" font-weight="bold" font-family="'Helvetica Neue', Helvetica, Arial-Unicode, Arial, Sans-serif">Created by Chaowalit  Koetchuea</text><text x="0" y="532" fill="#000000" font-size="5px" font-weight="bold" font-family="'Helvetica Neue', Helvetica, Arial-Unicode, Arial, Sans-serif">from the Noun Project</text></svg>