<svg width="58" height="108" viewBox="0 0 58 108" fill="none" xmlns="http://www.w3.org/2000/svg">
<g clip-path="url(#clip0_12895_4811)">
<path d="M55.8863 41.6028C54.2783 40.7428 52.2253 41.1188 50.4843 41.1678C48.1823 41.2328 45.8783 41.2278 43.5773 41.1598C46.4493 36.7048 48.8713 31.9358 50.5023 26.8868C51.3583 24.2378 51.9813 21.5188 52.3383 18.7578C52.4603 17.8118 52.6333 16.4148 51.3173 16.2858C50.6593 16.2208 49.9023 16.4938 49.2603 16.6188C48.6963 16.7278 48.1333 16.8378 47.5693 16.9468C46.3553 13.7388 44.3003 10.7458 41.5153 8.72276C38.7123 6.68776 35.1683 5.34976 31.6723 5.28776C31.8223 4.33476 31.9063 3.37176 31.8823 2.40576C31.8623 1.59576 31.8923 0.523762 31.0223 0.137762C30.1653 -0.242238 29.0493 0.239762 28.3173 0.695762C27.3643 1.28976 26.5603 2.11676 25.7303 2.86476C22.2123 6.02976 18.5383 9.05276 14.4893 11.5198C12.8373 12.5258 11.1243 13.4268 9.35427 14.1998C9.79827 13.4018 10.1163 12.5308 10.2933 11.6398C10.5743 10.0358 10.4543 8.47176 9.62727 7.04076C8.90627 5.79176 7.76327 4.79976 6.41127 4.29576C5.81427 4.07276 5.12127 3.97576 4.48127 4.07376C4.48127 3.08276 4.48127 2.09176 4.48127 1.10176C4.48127 0.763762 4.18427 0.440762 3.83627 0.456762C3.48627 0.471762 3.19027 0.739762 3.19027 1.10176C3.19027 2.29476 3.19027 3.48676 3.19027 4.67976C3.04027 4.82176 2.90127 4.98076 2.79027 5.17876C2.32927 5.99876 2.43627 6.82776 2.77827 7.59876C1.98027 7.69676 1.22227 8.18676 0.867268 9.03076C0.462268 9.99276 0.684268 10.9988 1.25827 11.7608C0.671268 12.1038 0.207268 12.6708 0.0632681 13.3948C-0.283732 15.1318 0.859268 17.0448 2.49027 17.6378C2.71927 17.7208 2.95427 17.7738 3.19127 17.8098C3.19127 35.0658 3.19127 52.3218 3.19127 69.5778C3.19127 74.7288 3.19127 79.8798 3.19127 85.0318C3.19127 85.8628 4.48227 85.8638 4.48227 85.0318C4.48227 83.2498 4.48227 81.4688 4.48227 79.6868C14.1823 75.5918 21.2713 67.6268 28.2683 60.0358C30.5963 57.5108 32.9013 54.9648 35.1293 52.3508C40.0023 52.8158 44.9843 52.1428 49.5363 50.3228C51.0933 49.7008 52.6023 48.9618 54.0353 48.0898C55.2553 47.3478 56.7843 46.4938 57.3503 45.1038C57.9153 43.7158 57.1503 42.2788 55.8863 41.6028ZM1.35927 14.4428C1.25227 13.9048 1.28527 13.3648 1.72127 12.9808C1.92927 12.7968 2.15827 12.7008 2.39227 12.6878C2.66227 12.8158 2.94527 12.9198 3.25227 12.9618C3.95227 13.0578 4.39927 12.2108 3.74927 11.7818C3.45127 11.5848 3.12827 11.4858 2.80427 11.4408C2.23127 11.1138 1.83127 10.5378 1.96427 9.82376C2.12227 8.96976 3.22127 8.47076 3.81127 9.19176C3.87527 9.26876 3.93827 9.34976 4.00127 9.42276C4.47827 9.97976 5.40527 9.25576 5.01527 8.64076C4.98427 8.59176 4.94127 8.56076 4.90727 8.51476C4.90927 8.51276 4.91227 8.51176 4.91427 8.50976C4.34827 7.84876 3.19727 6.49176 4.05927 5.61976C4.72727 4.94476 5.99827 5.44576 6.67827 5.83876C8.62927 6.96876 9.42727 9.13476 9.04927 11.2958C8.55627 13.7648 6.68627 16.4418 3.92727 16.5558C2.58827 16.6108 1.61727 15.7368 1.35927 14.4428ZM56.2113 44.4658C55.8453 45.7808 53.9293 46.6668 52.8473 47.2938C51.5293 48.0568 50.1513 48.7178 48.7283 49.2598C45.8673 50.3488 42.8423 51.0038 39.7853 51.1798C38.1513 51.2738 36.5183 51.2278 34.9003 51.0528C34.8623 51.0458 34.8263 51.0408 34.7873 51.0418C32.9963 50.8408 31.2243 50.4778 29.4913 49.9468C28.6953 49.7028 28.3553 50.9478 29.1483 51.1918C30.5993 51.6368 32.0853 51.9478 33.5843 52.1688C30.0793 56.2418 26.4223 60.1918 22.7363 64.0998C19.2263 67.8198 15.5673 71.4618 11.3673 74.4078C9.20527 75.9238 6.90227 77.2348 4.48127 78.2888C4.48127 63.0788 4.48127 47.8688 4.48127 32.6588C4.48127 27.7058 4.48127 22.7528 4.48127 17.7998C5.54327 17.6348 6.57927 17.1238 7.39827 16.4988C7.49827 16.4228 7.58927 16.3368 7.68427 16.2558C12.6023 14.4498 17.0363 11.6438 21.1473 8.42676C23.2463 6.78376 25.2613 5.03576 27.2333 3.24276C27.7263 2.79476 28.2093 2.32476 28.7603 1.94776C29.0723 1.73376 30.1213 1.03876 30.4843 1.34576C30.6313 1.47076 30.5823 2.07576 30.5883 2.26376C30.6013 2.64176 30.5983 3.01976 30.5813 3.39676C30.5463 4.19076 30.4393 4.97276 30.2863 5.75176C30.2733 5.81676 30.2833 5.87276 30.2873 5.93176C30.2873 5.94176 30.2873 5.95076 30.2873 5.96076C30.2923 5.99976 30.2953 6.03776 30.3063 6.07276C30.3543 6.34476 30.5483 6.58076 30.9083 6.56676C34.3763 6.43676 37.8523 7.72876 40.6723 9.69876C43.4293 11.6258 45.4533 14.6998 46.5403 17.8498C46.5953 18.0098 46.6973 18.1118 46.8123 18.1838C46.8203 18.1898 46.8283 18.1958 46.8373 18.2018C46.8723 18.2208 46.9053 18.2368 46.9433 18.2498C47.0573 18.3008 47.1843 18.3308 47.3343 18.3018C47.9963 18.1738 48.6583 18.0458 49.3203 17.9168C49.5193 17.8778 51.0053 17.4268 51.1603 17.5968C51.3503 17.8048 50.9913 19.1658 50.9593 19.3828C50.8663 20.0008 50.7593 20.6178 50.6393 21.2318C50.1753 23.5988 49.5143 25.9258 48.6933 28.1938C47.0453 32.7498 44.7443 37.0528 42.0843 41.0968C40.1853 41.0168 38.2873 40.9058 36.3933 40.7388C35.5663 40.6658 35.5713 41.9568 36.3933 42.0298C40.0813 42.3548 43.7813 42.5188 47.4843 42.5068C49.2643 42.5008 51.0393 42.4268 52.8183 42.3738C53.9843 42.3378 56.7313 42.5968 56.2113 44.4658ZM27.4233 12.6568C27.0053 13.3768 28.1203 14.0268 28.5373 13.3078C28.6103 13.1828 28.6873 13.0598 28.7743 12.9438C28.8183 12.8848 28.7853 12.9298 28.7763 12.9418C28.8043 12.9068 28.8333 12.8728 28.8633 12.8388C28.9153 12.7798 28.9683 12.7218 29.0243 12.6658C29.2583 12.4278 29.3823 12.3288 29.6603 12.1598C29.7853 12.0838 29.9143 12.0158 30.0473 11.9538C30.0713 11.9428 30.0683 11.9438 30.0683 11.9428C30.1023 11.9288 30.1373 11.9148 30.1713 11.9028C30.2443 11.8758 30.3183 11.8518 30.3933 11.8288C30.5013 11.7968 30.6113 11.7698 30.7213 11.7488C30.7413 11.7448 30.7613 11.7428 30.7813 11.7388C30.8343 11.7358 30.8863 11.7288 30.9393 11.7258C31.0443 11.7208 31.1483 11.7348 31.2523 11.7318C31.2673 11.7348 31.2823 11.7368 31.2973 11.7398C31.3503 11.7508 31.4023 11.7668 31.4543 11.7818C31.4703 11.7868 31.4703 11.7848 31.4783 11.7868C31.4823 11.7898 31.4783 11.7888 31.4863 11.7948C31.5223 11.8178 31.5593 11.8398 31.5963 11.8618C31.4943 11.8008 31.5643 11.8638 31.6153 11.8908C31.6233 11.9028 31.6303 11.9158 31.6383 11.9278C31.6433 11.9338 31.6473 11.9428 31.6513 11.9518C31.6543 11.9598 31.6573 11.9688 31.6603 11.9768C31.6643 11.9908 31.6773 12.0458 31.6853 12.0748C31.6883 12.0998 31.6923 12.1338 31.6933 12.1438C31.6953 12.1758 31.6963 12.2078 31.6973 12.2398C31.6983 12.3148 31.6933 12.3888 31.6883 12.4638C31.6873 12.4738 31.6883 12.4708 31.6883 12.4758C31.6873 12.4798 31.6873 12.4778 31.6863 12.4838C31.6803 12.5158 31.6753 12.5478 31.6683 12.5798C31.6543 12.6438 31.6383 12.7068 31.6203 12.7698C31.5993 12.8438 31.5733 12.9158 31.5473 12.9888C31.5413 13.0058 31.5433 12.9988 31.5423 13.0038C31.5263 13.0388 31.5103 13.0748 31.4933 13.1088C31.4133 13.2708 31.3173 13.4208 31.2183 13.5708C31.2203 13.5678 31.1563 13.6578 31.1883 13.6138C31.2113 13.5828 31.1423 13.6708 31.1343 13.6808C31.0773 13.7498 31.0173 13.8158 30.9553 13.8808C30.8453 13.9948 30.7273 14.1048 30.6023 14.2018C30.5833 14.2138 30.5043 14.2688 30.4873 14.2808C30.4093 14.3318 30.3293 14.3788 30.2473 14.4238C29.9413 14.5898 29.8433 15.0128 30.0153 15.3068C30.1963 15.6158 30.5913 15.7048 30.8983 15.5388C31.5763 15.1708 32.1543 14.5818 32.5293 13.9088C32.8983 13.2468 33.1493 12.3568 32.8983 11.6088C32.3913 10.0978 30.5123 10.3078 29.3643 10.8528C28.5583 11.2368 27.8703 11.8868 27.4233 12.6568ZM31.6593 11.9638C31.6663 11.9828 31.6643 11.9768 31.6593 11.9638ZM38.7663 21.7058C38.7793 21.6968 38.7923 21.6868 38.8043 21.6778C38.8183 21.6688 38.8153 21.6718 38.7623 21.7088C38.7633 21.7078 38.7653 21.7068 38.7663 21.7058ZM38.4663 21.9748C38.5303 21.9098 38.5973 21.8468 38.6673 21.7878C38.6983 21.7608 38.7313 21.7348 38.7623 21.7088C38.7563 21.7128 38.7563 21.7138 38.7493 21.7178C38.7553 21.7138 38.7603 21.7098 38.7663 21.7058C38.7673 21.7048 38.7683 21.7038 38.7693 21.7028C38.7793 21.6948 38.7943 21.6838 38.8043 21.6778C38.8123 21.6718 38.8193 21.6658 38.8273 21.6608C39.0253 21.5178 39.2323 21.3888 39.4483 21.2758C39.4963 21.2508 39.5443 21.2258 39.5933 21.2028C39.6063 21.1968 39.6823 21.1618 39.7123 21.1478C39.7403 21.1378 39.8123 21.1088 39.8343 21.1008C39.9003 21.0778 39.9663 21.0558 40.0333 21.0368C40.0823 21.0228 40.1323 21.0098 40.1813 20.9988C40.1983 20.9948 40.2503 20.9858 40.2843 20.9788C40.3173 20.9768 40.3803 20.9708 40.3933 20.9698C40.4413 20.9688 40.4913 20.9748 40.5393 20.9728C40.5523 20.9748 40.5653 20.9778 40.5773 20.9808C40.5983 20.9858 40.6183 20.9928 40.6393 20.9988C40.6833 21.0108 40.6853 21.0188 40.6783 21.0188C40.6843 21.0228 40.6903 21.0268 40.6973 21.0308C40.7063 21.0378 40.7203 21.0478 40.7283 21.0648C40.7383 21.0838 40.7493 21.1028 40.7603 21.1218C40.7623 21.1248 40.7613 21.1228 40.7633 21.1248C40.7643 21.1338 40.7633 21.1338 40.7673 21.1538C40.7753 21.1888 40.7833 21.2248 40.7913 21.2608C40.7893 21.2898 40.7953 21.3228 40.7953 21.3518C40.7973 21.4418 40.7893 21.5308 40.7813 21.6198C40.7773 21.6468 40.7693 21.7028 40.7653 21.7228C40.7523 21.7878 40.7373 21.8518 40.7203 21.9158C40.6943 22.0158 40.6643 22.1138 40.6293 22.2108C40.6153 22.2498 40.5993 22.2878 40.5853 22.3268C40.5743 22.3508 40.5623 22.3758 40.5523 22.3968C40.2323 23.0578 39.7983 23.4938 39.2793 24.0358C39.0453 24.2798 39.0183 24.7088 39.2793 24.9488C39.5323 25.1808 39.9423 25.2088 40.1923 24.9488C41.1353 23.9648 42.0993 22.8208 42.0863 21.3758C42.0793 20.6528 41.7253 20.0138 41.0223 19.7678C40.4003 19.5498 39.7153 19.7508 39.1373 19.9988C38.5593 20.2468 37.9943 20.6128 37.5523 21.0628C37.3153 21.3038 37.2943 21.7378 37.5523 21.9758C37.8093 22.2098 38.2143 22.2318 38.4663 21.9748ZM40.7213 21.0418C40.7233 21.0428 40.7223 21.0418 40.7233 21.0428C40.7443 21.0558 40.7523 21.0618 40.7213 21.0418ZM34.2473 21.8868C34.4833 22.4718 34.2723 23.1648 33.6083 23.3318C33.2613 23.4478 32.8003 23.4268 32.4353 23.4548C32.0063 23.4868 31.5753 23.5058 31.1453 23.5098C30.8663 23.5128 30.5463 23.5478 30.2743 23.4648C28.7083 24.8208 27.1413 26.1758 25.5753 27.5318C25.6123 27.5578 25.6483 27.5828 25.6863 27.6068C25.7793 27.6668 25.8753 27.7228 25.9733 27.7748C26.0323 27.8058 26.0923 27.8348 26.1523 27.8638C26.2453 27.9088 26.1553 27.8678 26.2123 27.8898C26.3153 27.9298 26.4203 27.9658 26.5263 27.9968C26.6433 28.0308 26.7623 28.0598 26.8813 28.0818C26.9253 28.0898 26.9683 28.0978 27.0123 28.1038C26.8973 28.0878 27.1033 28.1098 27.1053 28.1108C27.4663 28.1408 27.7343 28.3818 27.7503 28.7558C27.7653 29.0838 27.4423 29.4298 27.1053 29.4008C25.9333 29.3028 24.7903 28.7708 24.0413 27.8468C23.2253 26.8408 22.9073 25.5958 23.0903 24.3188C23.1413 23.9618 23.5793 23.7988 23.8843 23.8678C24.2533 23.9518 24.3823 24.3288 24.3353 24.6618C24.3503 24.5588 24.3283 24.7468 24.3273 24.7668C24.3233 24.8248 24.3203 24.8828 24.3183 24.9398C24.3153 25.0668 24.3183 25.1948 24.3273 25.3218C24.3283 25.3328 24.3363 25.4158 24.3393 25.4438C24.3443 25.4728 24.3593 25.5648 24.3593 25.5638C24.3803 25.6778 24.4073 25.7908 24.4393 25.9018C24.4713 26.0128 24.5083 26.1228 24.5503 26.2308C24.5643 26.2668 24.5663 26.2738 24.5683 26.2838C24.5733 26.2928 24.5773 26.2988 24.5943 26.3328C24.6203 26.3848 24.6453 26.4368 24.6723 26.4878C24.6873 26.5158 24.7053 26.5408 24.7203 26.5688C26.3143 25.1898 27.9083 23.8098 29.5023 22.4308C29.4983 22.2158 29.5423 21.9978 29.5753 21.7708C29.6393 21.3338 29.7033 20.8978 29.7673 20.4608C29.8573 19.8498 30.0233 19.1888 30.7023 18.9898C31.3063 18.8128 31.8503 19.1158 32.2983 19.4948C32.6753 19.8148 33.0283 20.1678 33.3473 20.5468C33.6863 20.9508 34.0483 21.3928 34.2473 21.8868ZM23.0803 14.9508C22.4233 14.2418 21.9623 13.3528 21.7623 12.4068C21.6923 12.0768 21.6633 11.7268 21.7363 11.3948C21.8103 11.0628 21.9293 10.6188 22.2873 10.4948C22.7823 10.3228 23.3943 10.5068 23.7983 10.8088C24.2873 11.1738 24.5933 11.7438 24.7413 12.3358C24.8893 12.9278 24.8933 13.5458 24.8703 14.1548C24.8603 14.4088 24.8463 14.6668 24.7583 14.9058C24.6703 15.1438 24.4973 15.3638 24.2563 15.4468C23.8303 15.5948 23.3873 15.2818 23.0803 14.9508ZM37.1793 29.2068C36.8893 28.7938 36.7253 28.1768 36.9113 27.6868C37.0463 27.3328 37.4933 27.2268 37.8283 27.1638C38.1623 27.1008 38.5113 27.1408 38.8393 27.2208C39.7783 27.4498 40.6533 27.9378 41.3413 28.6168C41.6623 28.9338 41.9623 29.3858 41.8003 29.8068C41.7093 30.0438 41.4853 30.2108 41.2443 30.2918C41.0033 30.3728 40.7443 30.3798 40.4903 30.3808C39.8803 30.3848 39.2623 30.3628 38.6753 30.1968C38.0883 30.0298 37.5293 29.7058 37.1793 29.2068ZM47.5423 20.9338C47.5983 20.8838 47.6563 20.8348 47.7133 20.7858C47.7143 20.7858 47.7593 20.7488 47.7753 20.7388C47.8133 20.7138 47.8543 20.6928 47.8913 20.6668C47.9033 20.6588 47.9033 20.6568 47.9083 20.6528C47.9073 20.6528 47.9093 20.6528 47.9083 20.6528C47.9113 20.6518 47.9273 20.6458 47.9373 20.6418C47.9163 20.6798 47.8983 20.7198 47.8783 20.7578C47.4563 21.5408 47.0113 22.3118 46.5773 23.0878C46.4123 23.3828 46.4963 23.8058 46.8093 23.9708C47.1133 24.1318 47.5163 24.0538 47.6923 23.7388C47.9703 23.2418 48.2473 22.7448 48.5253 22.2478C48.8103 21.7378 49.2103 21.1968 49.2643 20.6018C49.3273 19.9028 48.7793 19.4118 48.1263 19.3408C47.5363 19.2768 47.0453 19.6518 46.6313 20.0208C46.3783 20.2458 46.3843 20.7068 46.6313 20.9338C46.8993 21.1818 47.2723 21.1738 47.5423 20.9338ZM48.0513 20.6268C48.0573 20.6268 48.0613 20.6278 48.0663 20.6278C48.0773 20.6328 48.0853 20.6398 48.0823 20.6498C48.0723 20.6428 48.0623 20.6348 48.0513 20.6268ZM26.9493 6.58576C27.0973 6.40176 27.2563 6.22776 27.4273 6.06476C27.5143 5.98076 27.6053 5.89976 27.6983 5.82276C27.7353 5.79176 27.7733 5.76176 27.8113 5.73076C27.8353 5.71276 27.8603 5.69476 27.8843 5.67676C27.9623 5.62076 28.0473 5.57576 28.1273 5.52376C28.1103 5.57676 28.0883 5.62776 28.0703 5.67976C28.0523 5.71576 28.0353 5.75176 28.0173 5.78776C27.8633 6.08776 27.9293 6.50176 28.2493 6.67076C28.5443 6.82676 28.9673 6.75976 29.1323 6.43876C29.2923 6.12676 29.4193 5.79176 29.4743 5.44376C29.5383 5.03676 29.5363 4.66276 29.4773 4.25676C29.4563 4.11376 29.3043 3.93676 29.1803 3.87076C29.0343 3.79376 28.8433 3.74576 28.6833 3.80576C27.6573 4.18976 26.7293 4.81776 26.0373 5.67376C25.9263 5.81176 25.8483 5.94576 25.8483 6.12976C25.8483 6.28776 25.9183 6.47676 26.0373 6.58576C26.2723 6.80176 26.7223 6.86676 26.9493 6.58576ZM28.2283 5.09176C28.2273 5.09576 28.2283 5.09976 28.2273 5.10376C28.2273 5.11176 28.2263 5.11976 28.2223 5.14176C28.2213 5.14576 28.2203 5.14976 28.2193 5.15476C28.2153 5.12276 28.2263 5.07976 28.2283 5.09176Z" fill="black"/>
</g>
<defs>
<clipPath id="clip0_12895_4811">
<rect width="57.539" height="107.067" fill="white"/>
</clipPath>
</defs>
</svg>
