<svg width="478" height="233" viewBox="0 0 478 233" fill="none" xmlns="http://www.w3.org/2000/svg">
<path d="M477.187 191.908C476.267 188.578 472.047 190.498 469.597 190.988C467.217 186.548 460.457 187.288 456.347 184.988C443.027 180.988 429.217 171.308 415.017 175.658C412.937 169.978 408.017 167.588 403.107 164.568C416.547 159.878 423.207 113.488 411.827 125.448C412.007 147.808 407.127 159.448 385.327 167.988C365.687 174.108 381.077 175.058 360.667 169.868C352.667 168.678 344.667 169.618 336.607 169.808C328.087 171.568 320.207 176.808 311.377 177.478C312.467 172.228 306.617 171.118 305.377 176.018C303.737 183.408 297.027 189.598 289.087 187.828C279.717 188.318 274.087 184.448 273.607 174.628C273.657 172.468 274.027 171.628 276.067 171.418C279.427 171.148 282.067 169.208 285.007 168.018C294.267 165.498 300.247 155.018 309.227 153.268C317.657 158.638 327.637 156.888 336.807 154.858C340.217 153.168 349.647 153.298 349.667 148.788C348.947 142.318 327.667 153.298 320.977 151.338C316.507 151.278 312.697 149.068 309.547 146.338C307.667 146.138 306.487 144.968 305.147 143.808C297.897 139.368 289.797 136.158 284.057 129.488C278.617 125.858 277.227 112.488 270.947 112.728C268.947 113.138 267.947 115.508 269.387 116.878C274.717 125.878 279.527 135.088 288.727 140.878C292.957 144.288 298.817 145.348 302.497 149.488C296.167 154.268 290.207 160.208 282.497 163.108C278.747 165.208 274.237 165.558 270.637 167.878C263.487 175.748 271.367 192.078 281.637 192.948C299.497 194.118 295.997 194.458 310.057 185.058C314.987 181.558 321.437 181.408 326.987 179.218C331.507 177.968 335.337 174.938 340.267 175.318C354.177 173.858 362.267 175.398 374.887 180.638C385.217 182.328 394.807 186.838 404.887 189.568C408.887 190.168 414.637 188.078 415.297 183.568C420.177 172.738 451.677 190.688 460.907 192.698C456.857 194.028 434.807 198.248 435.827 202.968C436.207 205.338 439.107 205.378 440.937 204.678C448.547 202.498 455.177 198.298 463.417 198.608C458.247 203.828 437.417 224.178 430.547 221.688C429.795 221.38 428.959 221.344 428.183 221.587C427.407 221.83 426.74 222.336 426.297 223.018C414.797 228.728 400.727 224.468 388.297 224.958C348.297 229.018 306.387 223.848 266.087 224.148C237.917 226.008 209.837 225.798 181.597 224.858C157.977 224.508 134.477 224.018 110.977 221.968C100.037 221.248 89.5675 224.968 78.7075 224.268C73.2475 223.268 67.7075 223.548 62.1275 223.178C49.8375 221.528 36.8275 220.338 26.8375 212.318C62.2851 218.355 98.5011 218.321 133.937 212.218C137.047 211.528 140.377 211.628 143.397 210.578C146.397 209.318 144.987 204.848 141.787 205.388C115.754 210.257 89.2458 212.112 62.7875 210.918C44.3875 209.708 25.8375 207.918 9.29747 199.208C3.10747 196.578 7.29746 195.398 11.6975 195.608C10.6975 205.478 26.5475 193.928 30.2975 192.238C36.1875 186.618 41.9775 181.008 49.5075 177.688C56.0075 174.078 63.3675 173.688 70.6475 173.638C73.7475 174.108 78.0575 172.268 80.4275 174.688C80.6906 175.131 81.1022 175.467 81.5891 175.635C82.076 175.803 82.6069 175.794 83.0875 175.608C87.9475 174.528 91.2775 179.968 95.9875 180.698C127.067 191.798 160.037 195.048 192.587 189.178C210.137 187.548 229.187 185.778 244.817 177.118C259.237 167.788 260.167 148.398 255.377 133.338C250.857 118.508 234.377 112.838 220.577 110.338C208.707 107.218 196.417 111.608 184.807 113.868C186.207 105.058 186.927 96.0382 183.647 87.5582C181.527 82.7982 170.957 55.8882 164.647 62.8282C164.354 63.2153 164.147 63.6613 164.042 64.1356C163.937 64.61 163.936 65.1015 164.038 65.5764C164.141 66.0513 164.345 66.4984 164.637 66.8871C164.928 67.2758 165.3 67.5968 165.727 67.8282C171.117 71.2382 172.727 77.9282 175.787 83.1782C180.267 92.5382 181.927 103.078 178.977 113.178C178.627 117.388 164.627 121.378 160.567 124.178C147.887 130.068 134.447 127.608 121.167 125.818C104.409 124.047 88.5861 117.222 75.7975 106.248C67.0975 100.848 70.4875 82.8182 65.1875 84.4082C61.1175 86.0382 63.3675 92.7182 63.9975 96.0882C68.6575 115.388 90.8175 123.438 107.767 129.168C122.677 131.608 138.537 135.628 153.557 132.238C160.297 130.698 166.557 127.718 172.557 124.498C172.946 124.254 173.389 124.112 173.847 124.084C174.305 124.056 174.762 124.143 175.177 124.338C180.657 125.968 177.777 120.128 189.757 118.208C201.307 116.208 213.457 112.558 224.887 117.018C237.187 119.688 250.027 126.688 251.437 140.468C259.227 178.688 222.577 179.998 194.727 183.468C177.437 185.148 160.057 188.088 142.647 185.928C130.177 184.838 118.257 180.588 106.107 178.108C87.3675 172.398 70.2475 160.658 59.7175 143.838C52.1075 128.268 51.7175 109.758 52.0475 92.6882C52.1875 90.3382 53.5275 88.0682 53.4175 85.6382C53.2975 82.1482 48.3175 82.6382 47.9775 85.8582C44.7875 99.1882 46.1875 113.688 48.8275 127.098C50.4875 143.218 60.3775 157.688 73.4675 166.878C68.4675 169.108 63.1675 167.768 57.8575 168.828C50.9675 169.978 44.5975 173.928 38.6075 177.468C33.5475 179.688 28.9875 189.688 23.3275 188.178C17.2575 188.398 10.9675 190.298 4.72747 190.328C0.267465 190.248 0.797464 194.958 0.0974642 198.148C-0.212536 200.148 0.167465 201.028 1.95746 201.898C4.37746 203.898 10.6075 203.828 10.5775 207.488C10.4692 207.998 10.5644 208.53 10.8428 208.971C11.1211 209.412 11.5605 209.727 12.0675 209.848C21.2075 213.848 28.2975 222.928 38.5575 224.108C60.4875 230.988 83.4775 230.028 105.947 227.598C117.777 227.008 129.437 228.958 141.207 230.038C164.097 229.808 186.947 230.528 209.837 230.758C233.917 232.758 258.067 228.638 282.187 229.648C305.047 230.948 328.017 231.168 350.837 232.248C362.447 229.898 374.077 233.508 385.657 230.698C399.337 229.888 413.057 233.228 426.507 229.478C430.447 228.478 437.717 231.088 439.507 226.888C439.548 226.387 439.729 225.907 440.03 225.504C440.331 225.101 440.739 224.79 441.207 224.608C446.307 221.828 449.857 217.108 454.737 213.998C459.737 210.678 463.607 206.118 468.067 202.208C469.917 200.808 469.817 199.108 469.637 196.998C472.077 195.688 477.997 195.848 477.187 191.908ZM408.047 181.908C408.197 182.258 408.367 182.588 408.647 183.168C405.507 183.988 403.647 181.168 400.827 181.608C393.957 180.858 387.377 177.678 380.707 175.608C390.317 172.758 396.607 165.218 406.057 172.818C412.657 178.378 406.987 177.248 408.087 181.948L408.047 181.908Z" fill="black"/>
<path d="M279.238 46.5465C273.368 53.6165 275.368 63.0365 272.238 71.1165C270.288 78.5865 266.558 85.5765 266.798 93.4765C268.108 96.8965 264.348 107.796 271.258 104.576C275.038 98.1665 270.458 88.9365 274.498 82.1865C276.388 76.8165 278.378 71.5065 279.348 65.9065C280.018 59.7565 280.348 53.5365 284.708 48.6565C288.268 43.9365 293.818 42.2465 298.028 38.4165C298.414 37.9243 298.91 37.5296 299.476 37.2638C300.042 36.9981 300.663 36.8689 301.288 36.8865C307.528 35.8065 302.168 27.4065 297.288 30.6065V26.3365C302.218 25.7165 306.698 29.1665 311.288 30.7965C307.548 37.5365 317.808 36.5365 321.768 36.1465C327.398 35.9765 333.028 37.5665 338.698 37.6365C350.988 38.3765 363.178 41.2965 375.028 44.2765C378.488 45.0665 386.738 48.9365 386.238 42.4465C386.108 41.5665 385.238 40.5865 386.058 39.8165C389.408 38.6165 392.628 36.3965 396.398 36.8165C401.668 37.3165 407.168 35.9265 412.328 37.5365C412.038 38.2765 411.328 38.1865 410.828 38.1665C407.648 38.0765 404.888 39.6565 401.918 40.3765C397.628 41.7165 391.708 43.9665 390.538 48.7265C389.678 51.1665 386.108 52.6165 389.738 55.0465C396.678 61.0465 400.348 65.1065 410.298 64.5765C414.608 65.0665 415.428 61.3065 415.768 57.9165C417.318 53.0265 419.068 41.0465 415.248 37.4365C423.948 29.1665 403.798 31.6265 399.668 31.3265C395.808 31.2565 391.798 30.6265 388.298 32.7165C384.918 34.5065 380.508 34.9765 377.788 37.7665C376.518 39.4865 374.288 38.0165 372.568 38.0265C356.328 32.7965 339.188 32.2665 322.388 30.3565C314.008 25.8265 304.558 19.7665 294.578 20.5965C289.348 21.3165 292.238 31.9465 291.458 35.9165C286.918 39.1365 282.268 41.8565 279.238 46.5465ZM411.648 51.0265C411.298 53.7465 410.648 58.6065 407.418 59.0265C401.068 59.4265 389.608 50.8965 400.038 47.1365C403.438 46.5265 412.858 40.1365 411.788 47.3965H411.878C411.798 48.6865 411.678 49.8265 411.648 51.0265Z" fill="black"/>
<path d="M118.738 13.5064C126.338 10.9364 133.208 5.90643 141.578 6.09643C157.258 5.36643 173.088 5.38643 188.438 9.09643C203.848 11.7064 219.388 14.8864 233.668 21.4264C243.538 25.4264 252.188 31.7564 262.188 35.4764C265.798 36.6464 280.188 42.6464 282.238 40.4764C284.288 38.3064 281.528 34.8864 278.858 34.6564C263.078 32.1964 250.058 22.6564 235.858 16.2764C217.428 8.46642 197.778 4.73643 178.048 1.56643C162.408 0.256428 146.288 -1.43357 130.858 2.14643C127.548 3.94643 108.478 9.93643 118.738 13.5064Z" fill="black"/>
<path d="M344.747 220.408C359.547 220.848 374.167 221.228 388.747 218.468C395.887 217.648 402.307 213.738 409.477 212.698C413.627 211.328 433.317 209.888 430.937 204.038C428.587 199.548 419.307 205.938 415.237 206.118C407.362 207.213 399.643 209.227 392.237 212.118C376.667 216.028 360.587 215.318 344.687 214.838C325.507 215.568 307.317 209.628 288.767 205.838C285.187 205.518 280.487 202.838 277.417 205.388C274.097 209.858 280.337 210.458 283.477 210.618C288.117 211.498 292.677 212.998 297.367 213.568C309.367 215.068 320.787 220.128 333.097 220.138V220.368C337.007 220.348 340.897 220.168 344.747 220.408Z" fill="black"/>
<path d="M253.407 201.355C239.707 199.485 225.977 197.355 212.127 197.905C204.427 198.405 197.027 199.905 189.267 199.685C180.637 200.515 159.037 200.315 153.727 206.685C153.627 210.005 156.777 210.395 159.237 210.635C161.697 210.505 163.077 207.745 165.647 207.855C183.317 204.995 201.377 204.125 219.187 203.645C235.277 203.265 251.387 207.055 267.297 208.645C267.602 208.821 267.94 208.935 268.29 208.98C268.64 209.025 268.995 209.001 269.335 208.908C269.676 208.815 269.994 208.655 270.273 208.438C270.551 208.222 270.784 207.952 270.957 207.645C272.697 200.245 257.817 202.775 253.407 201.355Z" fill="black"/>
<path d="M303.008 111.297C301.324 112.509 299.443 113.419 297.448 113.987C293.898 114.767 294.908 120.327 298.698 119.317C309.388 116.317 305.588 112.437 317.278 119.037C321.338 121.037 323.428 115.867 319.538 114.037C317.118 112.277 312.098 111.647 311.648 108.337C312.138 106.237 311.418 103.277 313.498 101.967C317.268 100.507 325.198 96.1772 317.208 93.8772C302.128 102.527 309.638 92.4672 302.438 92.6872C298.708 94.5272 301.738 100.537 304.608 102.047C307.898 104.447 306.338 109.537 303.008 111.297Z" fill="black"/>
<path d="M414.257 67.5257C411.747 68.0157 415.387 82.5257 414.787 86.2157C416.097 96.6771 414.556 107.298 410.327 116.956C410.198 117.531 410.262 118.132 410.509 118.667C410.756 119.202 411.172 119.641 411.694 119.915C412.215 120.19 412.813 120.285 413.394 120.185C413.974 120.086 414.506 119.798 414.907 119.366C419.337 112.366 419.557 103.866 421.227 95.9657H421.107C419.547 90.8757 422.637 64.1157 414.257 67.5257Z" fill="black"/>
<path d="M51.7079 80.2671C56.4179 80.5971 56.8979 70.0971 59.8179 66.8671C62.8879 58.8671 69.6379 52.7971 72.8179 45.0271C69.9879 36.3271 62.8179 51.4271 60.4479 54.1371C58.2779 58.9771 45.1879 77.0971 51.7079 80.2671Z" fill="black"/>
<path d="M361.187 92.8655C358.187 95.9255 354.067 96.1855 350.017 95.6655C346.917 94.9955 345.487 88.3355 341.677 90.8955C338.047 94.8955 346.677 102.396 352.107 101.346C367.937 102.216 368.417 88.6855 361.187 92.8655Z" fill="black"/>
<path d="M288.758 91.9683C286.078 92.9683 283.998 92.0883 282.048 90.1683C281.54 89.7734 280.905 89.5779 280.262 89.6186C279.62 89.6592 279.014 89.9332 278.56 90.389C278.105 90.8449 277.833 91.4511 277.794 92.0937C277.755 92.7363 277.952 93.3709 278.348 93.8783C279.858 97.8783 292.948 99.9383 293.998 94.5683C294.068 91.9683 290.808 91.2983 288.758 91.9683Z" fill="black"/>
<path d="M76.027 31.0257C78.927 31.8157 81.867 32.4557 85.027 33.1957C91.837 32.3057 91.917 24.6957 85.977 26.6957C82.857 28.0657 79.497 25.3057 76.257 26.1657C73.917 26.5857 73.687 30.4057 76.027 31.0257Z" fill="black"/>
<path d="M95.1879 18.3478C98.3179 19.6378 106.078 22.3478 107.118 17.6578C106.968 12.4778 100.368 15.5278 97.2979 13.3478C96.9651 13.1794 96.6011 13.0812 96.2287 13.0593C95.8563 13.0375 95.4834 13.0925 95.1332 13.221C94.7829 13.3494 94.4629 13.5485 94.1928 13.8059C93.9228 14.0633 93.7086 14.3735 93.5636 14.7172C93.4186 15.0608 93.3458 15.4307 93.3498 15.8037C93.3537 16.1767 93.4344 16.5449 93.5867 16.8855C93.7391 17.226 93.9598 17.5315 94.2353 17.7831C94.5107 18.0347 94.835 18.2269 95.1879 18.3478Z" fill="black"/>
<path d="M94.1877 25.6865C96.8477 26.3865 99.3777 22.8865 96.8377 21.1665C94.4577 20.1665 92.7877 16.4265 89.8377 18.0665C86.3077 20.5465 90.9477 25.4965 94.1877 25.6865Z" fill="black"/>
<path d="M77.3268 43.1679C80.1968 42.2279 81.9668 38.1679 78.2368 37.0379C73.1868 35.5679 71.4168 45.0779 77.3268 43.1679Z" fill="black"/>
</svg>
