<svg width="34" height="108" viewBox="0 0 34 108" fill="none" xmlns="http://www.w3.org/2000/svg">
<g clip-path="url(#clip0_12895_4815)">
<path d="M33.9201 9.33776C33.9201 6.43276 33.9201 3.52776 33.9201 0.622762C33.9201 -0.207238 32.6291 -0.209238 32.6291 0.622762C32.6291 2.88476 32.6291 5.14676 32.6291 7.40876C31.3521 5.82476 29.7531 4.44176 27.9151 3.63976C27.2431 3.34676 26.4461 3.28376 25.9291 3.89676C25.4971 4.40876 25.3801 5.22076 25.2291 5.85176C24.8931 7.25476 24.7061 8.69376 24.6481 10.1358C18.4221 11.9198 13.1851 16.0518 8.1691 20.0088C6.7171 18.9158 5.1401 18.0288 3.4181 17.4208C2.6881 17.1628 1.8991 16.8978 1.1561 17.2668C0.570096 17.5578 0.227096 18.1458 0.0900958 18.7688C-0.0669042 19.4808 0.00609584 20.1928 0.0940958 20.9078C0.233096 22.0358 0.404096 23.1588 0.613096 24.2758C1.0271 26.4938 1.5801 28.6848 2.2491 30.8388C3.5811 35.1308 5.3891 39.2568 6.9251 43.4768C8.3911 47.5028 9.7381 51.5698 11.1021 55.6298C13.8351 63.7678 16.6501 71.9248 20.5861 79.5748C21.3501 81.0608 22.0111 82.7128 23.7351 83.2568C25.0581 83.6748 26.5831 83.2648 27.5141 82.2358C28.7521 80.8678 29.3131 78.7308 29.8761 77.0248C30.9451 73.7908 31.8261 70.4888 32.6271 67.1708C32.6271 73.1128 32.6271 79.0548 32.6271 84.9968C32.6271 85.8278 33.9181 85.8288 33.9181 84.9968C33.9181 73.9258 33.9181 62.8548 33.9181 51.7848C33.9181 41.1238 33.9181 30.4638 33.9181 19.8028C33.9181 16.3518 33.9181 12.8998 33.9181 9.44876C33.9211 9.41176 33.9261 9.37676 33.9201 9.33776ZM29.5971 73.5468C28.9831 75.6718 28.3611 77.8428 27.4381 79.8578C27.1661 80.4518 26.8771 81.0948 26.4151 81.5148C25.3431 82.4888 23.6531 82.2558 22.8501 81.0678C22.3281 80.2958 21.9341 79.3828 21.5121 78.5518C21.0291 77.6018 20.5621 76.6428 20.1101 75.6768C19.2701 73.8808 18.4821 72.0618 17.7361 70.2258C16.2691 66.6128 14.9541 62.9408 13.6901 59.2528C11.1151 51.7358 8.6331 44.2078 5.7481 36.7998C4.0451 32.4268 2.5671 27.9868 1.7541 23.3548C1.5591 22.2458 1.3451 21.1108 1.2901 19.9848C1.2641 19.4468 1.2481 18.4108 1.9851 18.3658C2.4801 18.3358 3.1101 18.6698 3.5601 18.8458C4.0701 19.0458 4.5681 19.2748 5.0531 19.5278C6.0001 20.0208 6.8961 20.6038 7.7281 21.2698C7.8531 21.3698 7.9861 21.4028 8.1181 21.4088C8.1331 21.4108 8.1481 21.4108 8.1631 21.4118C8.2001 21.4108 8.2351 21.4118 8.2711 21.4048C8.3961 21.3958 8.5231 21.3628 8.6411 21.2688C13.7331 17.2548 19.0581 12.9448 25.4431 11.2468C25.6531 11.1908 25.7811 11.0628 25.8471 10.9098C25.8881 10.8288 25.9151 10.7358 25.9171 10.6248C25.9431 9.28076 26.0891 7.94676 26.3741 6.63276C26.4381 6.33976 26.5081 6.04776 26.5841 5.75776C26.6551 5.48776 26.7051 5.05976 26.8581 4.82176C27.0671 4.49576 27.6961 4.95976 27.9511 5.10176C29.8781 6.17976 31.4491 7.76976 32.6301 9.62576C32.6301 17.6958 32.6301 25.7648 32.6301 33.8348C32.6301 43.0368 32.6301 52.2398 32.6301 61.4418C31.7351 65.5038 30.7511 69.5518 29.5971 73.5468ZM13.5751 29.5638C13.4301 28.8618 13.5191 28.0868 13.9201 27.4778C14.3411 26.8388 15.0571 26.4248 15.8371 26.4958C16.6681 26.5718 17.3691 27.0328 17.8611 27.6908C18.3261 28.3118 18.5611 29.0728 18.7811 29.8078C18.8851 30.1538 18.6571 30.4958 18.3301 30.6018C17.9931 30.7108 17.6331 30.4738 17.5361 30.1508C17.4331 29.8058 17.3291 29.4588 17.1941 29.1248C17.1881 29.1108 17.1891 29.1108 17.1871 29.1058C17.1851 29.1008 17.1851 29.1008 17.1781 29.0868C17.1641 29.0548 17.1491 29.0238 17.1351 28.9928C17.1011 28.9198 17.0641 28.8478 17.0261 28.7768C16.9821 28.6958 16.9351 28.6168 16.8851 28.5398C16.8691 28.5148 16.7681 28.3718 16.8051 28.4188C16.7141 28.3018 16.6071 28.1988 16.4971 28.0998C16.4771 28.0818 16.4681 28.0728 16.4651 28.0698C16.4601 28.0678 16.4501 28.0618 16.4281 28.0478C16.3661 28.0088 16.3051 27.9688 16.2401 27.9328C16.2111 27.9168 16.0461 27.8428 16.1401 27.8788C16.0821 27.8568 16.0241 27.8368 15.9641 27.8198C15.9241 27.8088 15.8851 27.8008 15.8451 27.7908C15.8421 27.7898 15.8281 27.7878 15.8141 27.7848C15.7891 27.7838 15.7071 27.7788 15.6861 27.7778C15.6461 27.7778 15.6061 27.7798 15.5661 27.7828H15.5651C15.5611 27.7838 15.5641 27.7838 15.5581 27.7848C15.4991 27.7988 15.4421 27.8188 15.3841 27.8338C15.3671 27.8428 15.3491 27.8508 15.3321 27.8608C15.3071 27.8758 15.2421 27.9188 15.2311 27.9228C15.1931 27.9548 15.1551 27.9888 15.1211 28.0248C15.1091 28.0368 15.0671 28.0878 15.0491 28.1078C15.0321 28.1358 14.9871 28.2048 14.9771 28.2228C14.9491 28.2708 14.9261 28.3218 14.9011 28.3708C14.9591 28.2588 14.8781 28.4408 14.8661 28.4788C14.8491 28.5328 14.8351 28.5878 14.8231 28.6428C14.8161 28.6728 14.8081 28.7268 14.8061 28.7368C14.8011 28.7888 14.7971 28.8408 14.7961 28.8928C14.7951 28.9588 14.7981 29.0238 14.8001 29.0898C14.8011 29.1128 14.8001 29.1168 14.8001 29.1208C14.8021 29.1288 14.8031 29.1308 14.8071 29.1518C14.8361 29.2958 14.8711 29.4378 14.9201 29.5768C14.9231 29.5858 14.9431 29.6428 14.9451 29.6488C14.9511 29.6628 14.9691 29.7058 14.9681 29.7038C15.0011 29.7758 15.0361 29.8468 15.0741 29.9168C15.1441 30.0478 15.2211 30.1738 15.3041 30.2968C15.4731 30.5498 15.5821 30.6798 15.7941 30.9248C16.0231 31.1888 16.0551 31.5758 15.7941 31.8378C15.5601 32.0718 15.1101 32.1018 14.8811 31.8378C14.3101 31.1808 13.7561 30.4368 13.5751 29.5638ZM31.1281 22.6928C31.2481 23.0338 30.9911 23.3848 30.6771 23.4868C30.3291 23.5988 29.9951 23.3538 29.8831 23.0358C29.8271 22.8758 29.7691 22.7158 29.7071 22.5568C29.6911 22.5168 29.6761 22.4778 29.6591 22.4388C29.6821 22.4948 29.6791 22.4878 29.6481 22.4178C29.6111 22.3418 29.5761 22.2648 29.5371 22.1888C29.3601 21.8488 29.2731 21.7348 29.0091 21.4828C28.9911 21.4678 28.9881 21.4648 28.9811 21.4588C28.9561 21.4408 28.9321 21.4238 28.9071 21.4078C28.8411 21.3648 28.7721 21.3298 28.7041 21.2918C28.6881 21.2838 28.6881 21.2838 28.6791 21.2798C28.6501 21.2688 28.6201 21.2578 28.5901 21.2488C28.5331 21.2308 28.4751 21.2188 28.4161 21.2078C28.4051 21.2118 28.2791 21.2018 28.2581 21.2008C28.2321 21.2028 28.2281 21.2028 28.2201 21.2028C28.1961 21.2078 28.1731 21.2118 28.1491 21.2178C28.1171 21.2258 28.0851 21.2358 28.0531 21.2468C28.0081 21.2728 27.9571 21.3128 27.9101 21.3318C27.8931 21.3468 27.8761 21.3608 27.8601 21.3768C27.8231 21.4128 27.7891 21.4518 27.7561 21.4908C27.7481 21.5068 27.6901 21.5908 27.6801 21.6088C27.6711 21.6248 27.6361 21.6988 27.6201 21.7268C27.5751 21.8468 27.5421 21.9678 27.5151 22.0938C27.5121 22.1248 27.5101 22.1548 27.5081 22.1858C27.5051 22.2558 27.5051 22.3258 27.5091 22.3948C27.5111 22.4288 27.5141 22.4628 27.5181 22.4968C27.5201 22.5058 27.5221 22.5168 27.5271 22.5478C27.5461 22.6328 27.5631 22.7178 27.5871 22.8008C27.6111 22.8848 27.6381 22.9678 27.6681 23.0488C27.6801 23.0818 27.6931 23.1138 27.7061 23.1468C27.7101 23.1548 27.7161 23.1678 27.7291 23.1988C27.8841 23.5178 28.0601 23.8218 28.2501 24.1208C28.4441 24.4248 28.3031 24.8208 28.0181 25.0038C27.7171 25.1978 27.3161 25.0568 27.1351 24.7718C26.6941 24.0808 26.3181 23.3518 26.2301 22.5258C26.0941 21.2598 27.0091 19.8198 28.4001 19.9128C29.0831 19.9588 29.7341 20.3018 30.1721 20.8278C30.6291 21.3768 30.8931 22.0248 31.1281 22.6928ZM29.5921 33.1528C29.3361 34.8538 27.5861 36.2078 25.8781 36.0508C25.5171 36.0178 25.2501 35.7818 25.2331 35.4058C25.2181 35.0798 25.5411 34.7298 25.8781 34.7608C26.0521 34.7768 26.2221 34.7728 26.3961 34.7588C26.3991 34.7578 26.3961 34.7588 26.4001 34.7578C26.4431 34.7498 26.4851 34.7418 26.5281 34.7328C26.6131 34.7138 26.6971 34.6908 26.7791 34.6648C26.8201 34.6518 26.8621 34.6368 26.9021 34.6218C26.9161 34.6168 26.9291 34.6118 26.9431 34.6058C27.0081 34.5798 26.9971 34.5848 26.9091 34.6208C26.9341 34.6238 26.9781 34.6018 27.0211 34.5768C26.4681 33.6358 25.9141 32.6938 25.3611 31.7528C24.0361 32.0568 22.4261 31.6788 22.2081 30.3108C22.0201 29.1348 23.3391 28.3378 24.2281 27.8998C25.2161 27.4128 26.6661 26.9698 27.2361 28.2708C27.5991 29.0988 27.4161 30.2168 26.8581 30.9158C26.7701 31.0258 26.6611 31.1238 26.5431 31.2158C27.0321 32.0478 27.5211 32.8798 28.0101 33.7118C28.0241 33.6908 28.0391 33.6708 28.0521 33.6498C28.0931 33.5818 28.1321 33.5118 28.1671 33.4408C28.1801 33.4138 28.2231 33.3548 28.2221 33.3228C28.1861 33.4108 28.1801 33.4218 28.2061 33.3568C28.2111 33.3428 28.2161 33.3298 28.2211 33.3158C28.2801 33.1518 28.3221 32.9828 28.3471 32.8098C28.4011 32.4528 28.8341 32.2888 29.1411 32.3588C29.5091 32.4428 29.6421 32.8208 29.5921 33.1528ZM19.3641 36.0118C18.4651 37.4978 16.4261 38.3508 14.7531 38.3658C14.3741 38.3688 13.9841 38.3318 13.6481 38.1578C13.3121 37.9838 13.0381 37.6498 13.0271 37.2708C13.0151 36.8818 13.2701 36.5388 13.5381 36.2578C14.2201 35.5438 15.0871 35.0128 16.0251 34.7078C16.8251 34.4478 17.7991 34.2838 18.6321 34.4788C19.4221 34.6638 19.7961 35.2988 19.3641 36.0118ZM7.3841 24.4968C7.2251 24.7978 6.7871 24.9088 6.5011 24.7288C5.9321 24.3688 5.3631 24.0078 4.7941 23.6478C4.6491 23.5558 4.5041 23.4638 4.3591 23.3718C4.3001 23.3348 4.2411 23.2958 4.1811 23.2618C4.1821 23.2698 4.1821 23.2768 4.1831 23.2828C4.1991 23.3668 4.2171 23.4508 4.2401 23.5338C4.3351 23.8688 4.4381 24.2018 4.5371 24.5358C4.7271 25.1778 4.9181 25.8198 5.1081 26.4618C5.2111 26.8088 4.9851 27.1498 4.6571 27.2558C4.3211 27.3648 3.9591 27.1288 3.8631 26.8048C3.6341 26.0338 3.4061 25.2638 3.1781 24.4938C2.9901 23.8598 2.6981 23.1148 3.0401 22.4798C3.2321 22.1238 3.6071 21.8938 4.0131 21.8928C4.4381 21.8918 4.7991 22.1228 5.1441 22.3418C5.8141 22.7658 6.4831 23.1898 7.1531 23.6138C7.4581 23.8068 7.5531 24.1778 7.3841 24.4968ZM31.7491 11.6988C31.4611 11.8848 31.0301 11.7628 30.8661 11.4668C30.5341 10.8658 30.1671 10.2848 29.7641 9.72876C29.5511 9.43476 29.4471 9.29976 29.2041 9.00676C29.0931 8.87276 28.9801 8.73976 28.8641 8.60976C28.8471 8.59076 28.8301 8.57276 28.8141 8.55376C28.8141 8.55676 28.8141 8.55876 28.8131 8.56176C28.8031 8.74576 28.8031 8.93076 28.7981 9.11476C28.7781 9.86576 28.7581 10.6178 28.7381 11.3688C28.7281 11.7308 28.4501 11.9978 28.0931 12.0138C27.7511 12.0288 27.4391 11.7058 27.4481 11.3688C27.4691 10.5928 27.4891 9.81776 27.5101 9.04176C27.5251 8.45976 27.5191 7.77676 27.9821 7.34476C28.2541 7.09176 28.6501 6.98776 29.0081 7.10576C29.3421 7.21576 29.5741 7.46476 29.7991 7.72076C30.6341 8.66976 31.3691 9.70776 31.9811 10.8148C32.1551 11.1318 32.0491 11.5058 31.7491 11.6988Z" fill="black"/>
</g>
<defs>
<clipPath id="clip0_12895_4815">
<rect width="33.923" height="107.025" fill="white"/>
</clipPath>
</defs>
</svg>
